<?xml version="1.0" encoding="UTF-8" standalone="no"?>
<!DOCTYPE svg PUBLIC "-//W3C//DTD SVG 20010904//EN"
              "http://www.w3.org/TR/2001/REC-SVG-20010904/DTD/svg10.dtd">

<svg xmlns="http://www.w3.org/2000/svg"
     width="50px" height="50px"
     viewBox="0 0 120 120">
  <path class="globe-section"
        fill="none" stroke="black" stroke-width="1"
        d="M 33.00,46.00
           C 33.75,35.79 44.78,28.28 54.00,26.00
             54.00,26.00 49.84,37.00 49.84,37.00
             49.84,37.00 46.57,44.98 46.57,44.98
             46.57,44.98 33.00,46.00 33.00,46.00 Z"/>
  <path class="globe-section"
        fill="none" stroke="black" stroke-width="1"
        d="M 59.00,26.00
           C 62.43,30.66 61.00,40.23 61.00,46.00
             61.00,46.00 50.00,46.00 50.00,46.00
             52.03,38.31 54.54,32.60 59.00,26.00 Z"/>
  <path class="globe-section"
        fill="none" stroke="black" stroke-width="1"
        d="M 64.00,26.00
           C 64.00,26.00 68.00,26.00 68.00,26.00
             69.44,29.56 77.10,41.90 73.39,44.98
             71.73,46.35 66.22,46.00 64.00,46.00
             64.00,46.00 64.00,26.00 64.00,26.00 Z" />
  <path class="globe-section"
        fill="none" stroke="black" stroke-width="1"
        d="M 78.00,46.00
           C 77.69,41.39 76.57,38.30 74.99,34.00
             74.48,32.58 73.18,30.10 74.15,28.65
             75.57,26.53 79.53,28.80 81.00,29.77
             86.64,33.48 91.00,39.04 94.00,45.00
             94.00,45.00 78.00,46.00 78.00,46.00 Z"/>
  <path class="globe-section"
        fill="none" stroke="black" stroke-width="1"
        d="M 47.00,65.00
           C 44.17,65.00 34.26,65.34 32.24,64.40
             28.91,62.86 28.70,53.05 31.47,51.02
             33.65,49.43 43.87,50.00 47.00,50.00
             47.00,50.00 47.00,65.00 47.00,65.00 Z"/>
  <path class="globe-section"
        fill="none" stroke="black" stroke-width="1"
        d="M 51.60,51.02
           C 53.95,50.02 58.07,49.19 59.98,51.60
             61.42,53.42 61.42,61.58 59.98,63.40
             59.18,64.41 58.15,64.67 56.94,64.85
             47.25,66.30 49.40,54.09 51.60,51.02 Z"/>
  <path class="globe-section"
        fill="none" stroke="black" stroke-width="1"
        d="M 64.00,50.00
           C 64.00,50.00 76.00,50.00 76.00,50.00
             76.00,50.00 76.00,65.00 76.00,65.00
             76.00,65.00 64.00,65.00 64.00,65.00
             64.00,65.00 64.00,50.00 64.00,50.00 Z"/>
  <path class="globe-section"
        fill="none" stroke="black" stroke-width="1"
        d="M 80.00,50.00
           C 80.00,50.00 95.00,50.00 95.00,50.00
             95.00,50.00 95.00,65.00 95.00,65.00
             95.00,65.00 80.00,65.00 80.00,65.00
             80.00,65.00 80.00,50.00 80.00,50.00 Z"/>
  <path class="globe-section"
        fill="none" stroke="black" stroke-width="1"
        d="M 33.00,69.00
           C 33.00,69.00 46.57,70.02 46.57,70.02
             46.57,70.02 49.84,78.00 49.84,78.00
             49.84,78.00 54.00,89.00 54.00,89.00
             43.08,86.76 35.49,80.04 33.00,69.00 Z"/>
  <path class="globe-section"
        fill="none" stroke="black" stroke-width="1"
        d="M 50.00,70.01
           C 52.53,69.28 57.09,68.19 59.40,70.01
             61.93,72.02 61.00,85.42 61.00,89.00
             54.02,85.51 52.63,76.78 50.00,70.01 Z"/>
  <path class="globe-section"
        fill="none" stroke="black" stroke-width="1"
        d="M 64.00,69.00
           C 66.44,69.00 72.43,68.45 73.70,70.60
             75.17,72.35 74.08,75.20 73.70,77.00
             71.67,82.29 69.88,86.99 65.00,90.00
             65.00,90.00 64.00,69.00 64.00,69.00 Z"/>
  <path class="globe-section"
        fill="none" stroke="black" stroke-width="1"
        d="M 78.00,69.00
           C 78.00,69.00 94.00,70.00 94.00,70.00
             88.04,81.92 84.11,84.62 72.00,90.00
             72.00,90.00 78.00,69.00 78.00,69.00 Z" />
</svg>
